<?xml version="1.0" encoding="UTF-8"?>
<!DOCTYPE svg PUBLIC "-//W3C//DTD SVG 1.1//EN" "http://www.w3.org/Graphics/SVG/1.1/DTD/svg11.dtd">
<svg version="1.2" width="190.9mm" height="100.9mm" viewBox="0 0 19090 10090" preserveAspectRatio="xMidYMid" fill-rule="evenodd" stroke-width="28.222" stroke-linejoin="round" xmlns="http://www.w3.org/2000/svg" xmlns:ooo="http://xml.openoffice.org/svg/export" xmlns:xlink="http://www.w3.org/1999/xlink" xmlns:presentation="http://sun.com/xmlns/staroffice/presentation" xmlns:smil="http://www.w3.org/2001/SMIL20/" xmlns:anim="urn:oasis:names:tc:opendocument:xmlns:animation:1.0" xml:space="preserve">
 <defs class="ClipPathGroup">
  <clipPath id="presentation_clip_path" clipPathUnits="userSpaceOnUse">
   <rect x="0" y="0" width="19090" height="10090"/>
  </clipPath>
  <clipPath id="presentation_clip_path_shrink" clipPathUnits="userSpaceOnUse">
   <rect x="19" y="10" width="19052" height="10070"/>
  </clipPath>
 </defs>
 <defs class="TextShapeIndex">
  <g ooo:slide="id1" ooo:id-list="id3 id4 id5 id6 id7 id8 id9 id10 id11 id12 id13 id14 id15 id16 id17 id18 id19 id20 id21 id22 id23 id24 id25 id26 id27 id28 id29 id30 id31 id32 id33 id34 id35 id36 id37 id38 id39 id40 id41 id42 id43"/>
 </defs>
 <defs class="EmbeddedBulletChars">
  <g id="bullet-char-template-57356" transform="scale(0.00048828125,-0.00048828125)">
   <path d="M 580,1141 L 1163,571 580,0 -4,571 580,1141 Z"/>
  </g>
  <g id="bullet-char-template-57354" transform="scale(0.00048828125,-0.00048828125)">
   <path d="M 8,1128 L 1137,1128 1137,0 8,0 8,1128 Z"/>
  </g>
  <g id="bullet-char-template-10146" transform="scale(0.00048828125,-0.00048828125)">
   <path d="M 174,0 L 602,739 174,1481 1456,739 174,0 Z M 1358,739 L 309,1346 659,739 1358,739 Z"/>
  </g>
  <g id="bullet-char-template-10132" transform="scale(0.00048828125,-0.00048828125)">
   <path d="M 2015,739 L 1276,0 717,0 1260,543 174,543 174,936 1260,936 717,1481 1274,1481 2015,739 Z"/>
  </g>
  <g id="bullet-char-template-10007" transform="scale(0.00048828125,-0.00048828125)">
   <path d="M 0,-2 C -7,14 -16,27 -25,37 L 356,567 C 262,823 215,952 215,954 215,979 228,992 255,992 264,992 276,990 289,987 310,991 331,999 354,1012 L 381,999 492,748 772,1049 836,1024 860,1049 C 881,1039 901,1025 922,1006 886,937 835,863 770,784 769,783 710,716 594,584 L 774,223 C 774,196 753,168 711,139 L 727,119 C 717,90 699,76 672,76 641,76 570,178 457,381 L 164,-76 C 142,-110 111,-127 72,-127 30,-127 9,-110 8,-76 1,-67 -2,-52 -2,-32 -2,-23 -1,-13 0,-2 Z"/>
  </g>
  <g id="bullet-char-template-10004" transform="scale(0.00048828125,-0.00048828125)">
   <path d="M 285,-33 C 182,-33 111,30 74,156 52,228 41,333 41,471 41,549 55,616 82,672 116,743 169,778 240,778 293,778 328,747 346,684 L 369,508 C 377,444 397,411 428,410 L 1163,1116 C 1174,1127 1196,1133 1229,1133 1271,1133 1292,1118 1292,1087 L 1292,965 C 1292,929 1282,901 1262,881 L 442,47 C 390,-6 338,-33 285,-33 Z"/>
  </g>
  <g id="bullet-char-template-9679" transform="scale(0.00048828125,-0.00048828125)">
   <path d="M 813,0 C 632,0 489,54 383,161 276,268 223,411 223,592 223,773 276,916 383,1023 489,1130 632,1184 813,1184 992,1184 1136,1130 1245,1023 1353,916 1407,772 1407,592 1407,412 1353,268 1245,161 1136,54 992,0 813,0 Z"/>
  </g>
  <g id="bullet-char-template-8226" transform="scale(0.00048828125,-0.00048828125)">
   <path d="M 346,457 C 273,457 209,483 155,535 101,586 74,649 74,723 74,796 101,859 155,911 209,963 273,989 346,989 419,989 480,963 531,910 582,859 608,796 608,723 608,648 583,586 532,535 482,483 420,457 346,457 Z"/>
  </g>
  <g id="bullet-char-template-8211" transform="scale(0.00048828125,-0.00048828125)">
   <path d="M -4,459 L 1135,459 1135,606 -4,606 -4,459 Z"/>
  </g>
  <g id="bullet-char-template-61548" transform="scale(0.00048828125,-0.00048828125)">
   <path d="M 173,740 C 173,903 231,1043 346,1159 462,1274 601,1332 765,1332 928,1332 1067,1274 1183,1159 1299,1043 1357,903 1357,740 1357,577 1299,437 1183,322 1067,206 928,148 765,148 601,148 462,206 346,322 231,437 173,577 173,740 Z"/>
  </g>
 </defs>
 <g>
  <g id="id2" class="Master_Slide">
   <g id="bg-id2" class="Background"/>
   <g id="bo-id2" class="BackgroundObjects"/>
  </g>
 </g>
 <g class="SlideGroup">
  <g>
   <g id="container-id1">
    <g id="id1" class="Slide" clip-path="url(#presentation_clip_path)">
     <g class="Page">
      <g class="Group">
       <g class="com.sun.star.drawing.PolyPolygonShape">
        <g id="id3">
         <rect class="BoundingBox" stroke="none" fill="none" x="16446" y="0" width="2641" height="3924"/>
         <path fill="rgb(255,193,7)" stroke="none" d="M 19086,1798 L 19086,3923 19050,3869 16470,36 16446,0 17876,0 17900,36 19050,1744 19086,1798 Z"/>
        </g>
       </g>
       <g class="com.sun.star.drawing.ClosedBezierShape">
        <g id="id4">
         <rect class="BoundingBox" stroke="none" fill="none" x="0" y="0" width="19087" height="10075"/>
         <path fill="rgb(63,61,86)" stroke="none" d="M 10067,0 C 8745,-2 7435,258 6214,763 4992,1268 3882,2010 2948,2945 2788,3105 2634,3269 2486,3438 2183,3784 1903,4150 1650,4534 1577,4645 1507,4757 1438,4870 1193,5279 976,5704 791,6142 770,6190 751,6237 731,6286 624,6551 528,6819 444,7091 228,7789 90,8508 32,9236 11,9507 0,9780 0,10055 L 0,10073 19086,10073 19086,0 10067,0 Z M 19050,10037 L 35,10037 C 36,9793 45,9551 63,9312 117,8578 252,7852 466,7147 550,6872 645,6602 752,6337 949,5846 1185,5372 1457,4918 1525,4804 1596,4691 1669,4580 1922,4195 2200,3827 2503,3480 4345,1371 7053,36 10067,36 L 19050,36 19050,10037 Z"/>
        </g>
       </g>
       <g class="com.sun.star.drawing.ClosedBezierShape">
        <g id="id5">
         <rect class="BoundingBox" stroke="none" fill="none" x="8171" y="7406" width="909" height="2640"/>
         <path fill="rgb(255,193,7)" stroke="none" d="M 8907,8631 C 9149,9360 9064,10045 9064,10045 9064,10045 8586,9547 8343,8818 8100,8090 8186,7406 8186,7406 8186,7406 8665,7903 8907,8631 Z"/>
        </g>
       </g>
       <g class="com.sun.star.drawing.ClosedBezierShape">
        <g id="id6">
         <rect class="BoundingBox" stroke="none" fill="none" x="9049" y="7406" width="909" height="2640"/>
         <path fill="rgb(255,193,7)" stroke="none" d="M 9221,8631 C 8978,9360 9063,10045 9063,10045 9063,10045 9542,9547 9785,8818 10027,8090 9942,7406 9942,7406 9942,7406 9463,7903 9221,8631 Z"/>
        </g>
       </g>
       <g class="com.sun.star.drawing.ClosedBezierShape">
        <g id="id7">
         <rect class="BoundingBox" stroke="none" fill="none" x="8725" y="7256" width="597" height="2782"/>
         <path fill="rgb(63,61,86)" stroke="none" d="M 9320,8640 C 9336,9408 9052,10036 9052,10036 9052,10036 8742,9420 8726,8653 8710,7884 8993,7256 8993,7256 8993,7256 9304,7872 9320,8640 Z"/>
        </g>
       </g>
       <g class="com.sun.star.drawing.ClosedBezierShape">
        <g id="id8">
         <rect class="BoundingBox" stroke="none" fill="none" x="8365" y="10006" width="1373" height="78"/>
         <path fill="rgb(63,61,86)" stroke="none" d="M 9052,10083 C 9430,10083 9737,10065 9737,10044 9737,10023 9430,10006 9052,10006 8672,10006 8365,10023 8365,10044 8365,10065 8672,10083 9052,10083 Z"/>
        </g>
       </g>
       <g class="com.sun.star.drawing.ClosedBezierShape">
        <g id="id9">
         <rect class="BoundingBox" stroke="none" fill="none" x="2127" y="9278" width="780" height="780"/>
         <path fill="rgb(242,242,242)" stroke="none" d="M 2516,10057 C 2732,10057 2906,9883 2906,9667 2906,9453 2732,9279 2516,9279 2301,9279 2127,9453 2127,9667 2127,9883 2301,10057 2516,10057 Z"/>
        </g>
       </g>
       <g class="com.sun.star.drawing.ClosedBezierShape">
        <g id="id10">
         <rect class="BoundingBox" stroke="none" fill="none" x="2061" y="9039" width="1055" height="1053"/>
         <path fill="rgb(63,61,86)" stroke="none" d="M 2588,9039 C 2449,9039 2314,9094 2215,9193 2117,9291 2061,9425 2061,9565 2061,9568 2061,9571 2061,9574 2063,9671 2092,9765 2144,9847 2196,9929 2270,9995 2357,10037 2388,10053 2421,10065 2454,10073 2542,10096 2634,10096 2722,10073 2755,10065 2788,10053 2818,10037 2925,9985 3012,9899 3063,9791 3114,9684 3127,9563 3101,9447 3074,9330 3009,9227 2916,9153 2822,9079 2707,9039 2588,9039 Z M 2717,10037 C 2675,10049 2632,10055 2588,10055 2579,10055 2571,10054 2562,10054 2527,10052 2493,10047 2460,10037 2388,10018 2322,9983 2267,9935 2211,9887 2167,9827 2138,9760 2098,9668 2087,9567 2107,9469 2127,9370 2176,9281 2248,9212 2320,9142 2411,9097 2511,9081 2609,9065 2710,9080 2801,9123 2891,9166 2965,9236 3014,9323 3064,9410 3085,9511 3076,9610 3067,9709 3028,9803 2963,9880 2899,9956 2813,10011 2717,10037 Z"/>
        </g>
       </g>
       <g class="com.sun.star.drawing.PolyPolygonShape">
        <g id="id11">
         <rect class="BoundingBox" stroke="none" fill="none" x="4097" y="7028" width="2913" height="519"/>
         <path fill="rgb(242,242,242)" stroke="none" d="M 7009,7028 L 4097,7028 4097,7545 7009,7545 7009,7028 Z"/>
        </g>
       </g>
       <g class="com.sun.star.drawing.PolyPolygonShape">
        <g id="id12">
         <rect class="BoundingBox" stroke="none" fill="none" x="13172" y="2199" width="2914" height="519"/>
         <path fill="rgb(242,242,242)" stroke="none" d="M 16085,2199 L 13172,2199 13172,2717 16085,2717 16085,2199 Z"/>
        </g>
       </g>
       <g class="com.sun.star.drawing.PolyPolygonShape">
        <g id="id13">
         <rect class="BoundingBox" stroke="none" fill="none" x="13172" y="3330" width="2914" height="519"/>
         <path fill="rgb(242,242,242)" stroke="none" d="M 16085,3330 L 13172,3330 13172,3848 16085,3848 16085,3330 Z"/>
        </g>
       </g>
       <g class="com.sun.star.drawing.PolyPolygonShape">
        <g id="id14">
         <rect class="BoundingBox" stroke="none" fill="none" x="13172" y="4425" width="2914" height="518"/>
         <path fill="rgb(242,242,242)" stroke="none" d="M 16085,4425 L 13172,4425 13172,4942 16085,4942 16085,4425 Z"/>
        </g>
       </g>
       <g class="com.sun.star.drawing.PolyPolygonShape">
        <g id="id15">
         <rect class="BoundingBox" stroke="none" fill="none" x="13172" y="5520" width="2914" height="518"/>
         <path fill="rgb(242,242,242)" stroke="none" d="M 16085,5520 L 13172,5520 13172,6037 16085,6037 16085,5520 Z"/>
        </g>
       </g>
       <g class="com.sun.star.drawing.PolyPolygonShape">
        <g id="id16">
         <rect class="BoundingBox" stroke="none" fill="none" x="13172" y="6651" width="2914" height="518"/>
         <path fill="rgb(242,242,242)" stroke="none" d="M 16085,6651 L 13172,6651 13172,7168 16085,7168 16085,6651 Z"/>
        </g>
       </g>
       <g class="com.sun.star.drawing.PolyPolygonShape">
        <g id="id17">
         <rect class="BoundingBox" stroke="none" fill="none" x="13172" y="7782" width="2914" height="518"/>
         <path fill="rgb(242,242,242)" stroke="none" d="M 16085,7782 L 13172,7782 13172,8299 16085,8299 16085,7782 Z"/>
        </g>
       </g>
       <g class="com.sun.star.drawing.PolyPolygonShape">
        <g id="id18">
         <rect class="BoundingBox" stroke="none" fill="none" x="4079" y="6844" width="3884" height="720"/>
         <path fill="rgb(63,61,86)" stroke="none" d="M 4079,6844 L 4079,7563 7962,7563 7962,6844 4079,6844 Z M 7926,7527 L 4115,7527 4115,6881 7926,6881 7926,7527 Z"/>
        </g>
       </g>
       <g class="com.sun.star.drawing.ClosedBezierShape">
        <g id="id19">
         <rect class="BoundingBox" stroke="none" fill="none" x="10369" y="2626" width="361" height="361"/>
         <path fill="rgb(63,61,86)" stroke="none" d="M 10550,2986 C 10649,2986 10729,2906 10729,2806 10729,2706 10649,2626 10550,2626 10449,2626 10369,2706 10369,2806 10369,2906 10449,2986 10550,2986 Z"/>
        </g>
       </g>
       <g class="com.sun.star.drawing.ClosedBezierShape">
        <g id="id20">
         <rect class="BoundingBox" stroke="none" fill="none" x="10369" y="3739" width="361" height="361"/>
         <path fill="rgb(63,61,86)" stroke="none" d="M 10550,4099 C 10649,4099 10729,4018 10729,3919 10729,3820 10649,3739 10550,3739 10449,3739 10369,3820 10369,3919 10369,4018 10449,4099 10550,4099 Z"/>
        </g>
       </g>
       <g class="com.sun.star.drawing.ClosedBezierShape">
        <g id="id21">
         <rect class="BoundingBox" stroke="none" fill="none" x="10369" y="4852" width="361" height="361"/>
         <path fill="rgb(63,61,86)" stroke="none" d="M 10550,5212 C 10649,5212 10729,5131 10729,5032 10729,4933 10649,4852 10550,4852 10449,4852 10369,4933 10369,5032 10369,5131 10449,5212 10550,5212 Z"/>
        </g>
       </g>
       <g class="com.sun.star.drawing.ClosedBezierShape">
        <g id="id22">
         <rect class="BoundingBox" stroke="none" fill="none" x="10369" y="5965" width="361" height="362"/>
         <path fill="rgb(63,61,86)" stroke="none" d="M 10550,6325 C 10649,6325 10729,6243 10729,6144 10729,6045 10649,5965 10550,5965 10449,5965 10369,6045 10369,6144 10369,6243 10449,6325 10550,6325 Z"/>
        </g>
       </g>
       <g class="com.sun.star.drawing.ClosedBezierShape">
        <g id="id23">
         <rect class="BoundingBox" stroke="none" fill="none" x="10369" y="7077" width="361" height="361"/>
         <path fill="rgb(63,61,86)" stroke="none" d="M 10550,7437 C 10649,7437 10729,7356 10729,7257 10729,7158 10649,7077 10550,7077 10449,7077 10369,7158 10369,7257 10369,7356 10449,7437 10550,7437 Z"/>
        </g>
       </g>
       <g class="com.sun.star.drawing.ClosedBezierShape">
        <g id="id24">
         <rect class="BoundingBox" stroke="none" fill="none" x="10369" y="8190" width="361" height="361"/>
         <path fill="rgb(63,61,86)" stroke="none" d="M 10550,8550 C 10649,8550 10729,8470 10729,8370 10729,8271 10649,8190 10550,8190 10449,8190 10369,8271 10369,8370 10369,8470 10449,8550 10550,8550 Z"/>
        </g>
       </g>
       <g class="com.sun.star.drawing.PolyPolygonShape">
        <g id="id25">
         <rect class="BoundingBox" stroke="none" fill="none" x="12166" y="2787" width="4926" height="38"/>
         <path fill="rgb(63,61,86)" stroke="none" d="M 17091,2787 L 12166,2787 12166,2824 17091,2824 17091,2787 Z"/>
        </g>
       </g>
       <g class="com.sun.star.drawing.PolyPolygonShape">
        <g id="id26">
         <rect class="BoundingBox" stroke="none" fill="none" x="12166" y="3900" width="4926" height="39"/>
         <path fill="rgb(63,61,86)" stroke="none" d="M 17091,3900 L 12166,3900 12166,3937 17091,3937 17091,3900 Z"/>
        </g>
       </g>
       <g class="com.sun.star.drawing.PolyPolygonShape">
        <g id="id27">
         <rect class="BoundingBox" stroke="none" fill="none" x="12166" y="5013" width="4926" height="38"/>
         <path fill="rgb(63,61,86)" stroke="none" d="M 17091,5013 L 12166,5013 12166,5050 17091,5050 17091,5013 Z"/>
        </g>
       </g>
       <g class="com.sun.star.drawing.PolyPolygonShape">
        <g id="id28">
         <rect class="BoundingBox" stroke="none" fill="none" x="12166" y="6126" width="4926" height="38"/>
         <path fill="rgb(63,61,86)" stroke="none" d="M 17091,6126 L 12166,6126 12166,6163 17091,6163 17091,6126 Z"/>
        </g>
       </g>
       <g class="com.sun.star.drawing.PolyPolygonShape">
        <g id="id29">
         <rect class="BoundingBox" stroke="none" fill="none" x="12166" y="7239" width="4926" height="38"/>
         <path fill="rgb(63,61,86)" stroke="none" d="M 17091,7239 L 12166,7239 12166,7276 17091,7276 17091,7239 Z"/>
        </g>
       </g>
       <g class="com.sun.star.drawing.PolyPolygonShape">
        <g id="id30">
         <rect class="BoundingBox" stroke="none" fill="none" x="12166" y="8352" width="4926" height="38"/>
         <path fill="rgb(63,61,86)" stroke="none" d="M 17091,8352 L 12166,8352 12166,8389 17091,8389 17091,8352 Z"/>
        </g>
       </g>
       <g class="com.sun.star.drawing.PolyPolygonShape">
        <g id="id31">
         <rect class="BoundingBox" stroke="none" fill="none" x="17505" y="8533" width="862" height="861"/>
         <path fill="rgb(63,61,86)" stroke="none" d="M 17977,9393 L 17505,9005 17892,8533 18366,8920 17977,9393 Z M 17555,9000 L 17972,9342 18315,8925 17897,8583 17555,9000 Z"/>
        </g>
       </g>
       <g class="com.sun.star.drawing.PolyPolygonShape">
        <g id="id32">
         <rect class="BoundingBox" stroke="none" fill="none" x="10324" y="587" width="811" height="812"/>
         <path fill="rgb(255,193,7)" stroke="none" d="M 11134,954 L 10688,588 10324,1033 10768,1398 11134,954 Z"/>
        </g>
       </g>
       <g class="com.sun.star.drawing.ClosedBezierShape">
        <g id="id33">
         <rect class="BoundingBox" stroke="none" fill="none" x="3629" y="1531" width="4784" height="4777"/>
         <path fill="rgb(63,61,86)" stroke="none" d="M 8412,3919 C 8413,4426 8252,4919 7952,5327 7918,5374 7882,5420 7844,5464 7738,5588 7620,5702 7490,5803 7477,5813 7464,5823 7451,5833 7403,5869 7353,5903 7301,5936 7286,5946 7270,5956 7254,5965 7219,5987 7182,6007 7145,6027 7127,6037 7109,6046 7090,6055 6714,6243 6293,6328 5873,6302 5453,6276 5047,6139 4696,5907 4678,5894 4659,5882 4641,5869 4607,5845 4573,5820 4541,5794 4510,5770 4481,5746 4452,5720 4300,5588 4165,5437 4050,5271 4028,5238 4007,5205 3986,5172 3792,4858 3674,4503 3640,4135 3607,3768 3659,3397 3793,3053 3927,2709 4139,2401 4413,2153 4686,1904 5013,1722 5369,1621 5725,1521 6099,1504 6462,1572 6826,1640 7168,1791 7463,2015 7758,2238 7997,2525 8162,2856 8326,3186 8412,3550 8412,3919 Z"/>
        </g>
       </g>
       <g class="com.sun.star.drawing.ClosedBezierShape">
        <g id="id34">
         <rect class="BoundingBox" stroke="none" fill="none" x="5279" y="2500" width="1304" height="1303"/>
         <path fill="rgb(160,97,106)" stroke="none" d="M 5931,3802 C 6290,3802 6582,3509 6582,3150 6582,2791 6290,2500 5931,2500 5570,2500 5279,2791 5279,3150 5279,3509 5570,3802 5931,3802 Z"/>
        </g>
       </g>
       <g class="com.sun.star.drawing.ClosedBezierShape">
        <g id="id35">
         <rect class="BoundingBox" stroke="none" fill="none" x="5333" y="3408" width="1427" height="1709"/>
         <path fill="rgb(160,97,106)" stroke="none" d="M 5482,3462 C 5482,3462 5699,3950 5401,4139 5101,4329 5889,5116 5889,5116 L 6758,4193 C 6758,4193 6296,3895 6377,3408 L 5482,3462 Z"/>
        </g>
       </g>
       <g class="com.sun.star.drawing.ClosedBezierShape">
        <g id="id36">
         <rect class="BoundingBox" stroke="none" fill="none" x="7246" y="5802" width="245" height="164"/>
         <path fill="rgb(160,97,106)" stroke="none" d="M 7489,5802 C 7475,5813 7462,5823 7449,5833 7401,5869 7351,5903 7299,5936 7284,5946 7268,5956 7252,5965 L 7246,5929 7308,5896 7489,5802 Z"/>
        </g>
       </g>
       <g class="com.sun.star.drawing.ClosedBezierShape">
        <g id="id37">
         <rect class="BoundingBox" stroke="none" fill="none" x="4478" y="4066" width="3177" height="2242"/>
         <path fill="rgb(255,193,7)" stroke="none" d="M 7253,5965 C 7269,5956 7285,5946 7300,5936 L 7301,5929 7309,5896 7654,4546 6609,4066 5999,4437 5451,4101 C 5451,4101 5129,4112 5048,4193 4984,4257 4671,4404 4538,4465 4501,4481 4478,4492 4478,4492 4478,4492 4499,5108 4540,5794 4572,5820 4606,5845 4640,5869 4658,5882 4677,5894 4695,5907 5046,6139 5452,6276 5873,6302 6293,6328 6713,6243 7089,6055 L 7253,5965 Z"/>
        </g>
       </g>
       <g class="com.sun.star.drawing.ClosedBezierShape">
        <g id="id38">
         <rect class="BoundingBox" stroke="none" fill="none" x="3985" y="4465" width="713" height="1443"/>
         <path fill="rgb(255,193,7)" stroke="none" d="M 4696,4465 L 4696,5907 C 4678,5894 4659,5882 4641,5869 4607,5845 4573,5820 4541,5794 4510,5770 4481,5746 4452,5720 4300,5588 4165,5437 4049,5271 4027,5238 4006,5205 3985,5172 4002,5113 4022,5049 4044,4979 4181,4546 4479,4465 4479,4465 L 4696,4465 Z"/>
        </g>
       </g>
       <g class="com.sun.star.drawing.ClosedBezierShape">
        <g id="id39">
         <rect class="BoundingBox" stroke="none" fill="none" x="7088" y="4519" width="864" height="1537"/>
         <path fill="rgb(255,193,7)" stroke="none" d="M 7252,5965 C 7268,5956 7284,5946 7299,5936 7351,5903 7400,5869 7449,5833 7462,5823 7475,5813 7488,5803 7618,5702 7736,5588 7842,5464 7881,5420 7917,5374 7951,5327 7839,4982 7653,4546 7653,4546 L 7273,4519 C 7273,4519 7119,5753 7088,6055 L 7252,5965 Z"/>
        </g>
       </g>
       <g class="com.sun.star.drawing.ClosedBezierShape">
        <g id="id40">
         <rect class="BoundingBox" stroke="none" fill="none" x="5186" y="2230" width="1508" height="983"/>
         <path fill="rgb(47,46,65)" stroke="none" d="M 5531,2398 C 5498,2426 5464,2452 5429,2476 5384,2513 5343,2554 5306,2598 L 5264,2645 C 5228,2685 5190,2731 5192,2784 5192,2804 5198,2823 5201,2843 5210,2921 5162,3007 5202,3076 5213,3095 5231,3111 5243,3130 5259,3154 5267,3183 5264,3212 5306,3214 5341,3176 5354,3136 5367,3096 5365,3052 5372,3010 5378,2969 5397,2924 5435,2906 5516,2866 5609,2969 5696,2943 5757,2925 5788,2850 5851,2838 5896,2829 5938,2855 5980,2874 6021,2892 6076,2901 6105,2867 6125,2844 6127,2807 6152,2791 6183,2773 6221,2799 6245,2826 6268,2853 6293,2887 6329,2886 6377,2885 6413,2821 6459,2836 6510,2853 6486,2935 6517,2979 6543,3016 6598,3013 6643,3007 6651,3008 6658,3007 6665,3004 6672,3001 6678,2996 6683,2990 6688,2984 6691,2977 6692,2970 6693,2962 6692,2954 6690,2947 L 6671,2698 C 6671,2681 6667,2664 6660,2649 6647,2625 6620,2613 6601,2593 6563,2551 6565,2478 6516,2448 6491,2432 6459,2433 6434,2417 6402,2396 6392,2355 6369,2324 6337,2281 6282,2259 6228,2254 6174,2248 6119,2255 6065,2253 5955,2250 5845,2219 5733,2237 5637,2253 5596,2335 5531,2398 Z"/>
        </g>
       </g>
       <g class="com.sun.star.drawing.ClosedBezierShape">
        <g id="id41">
         <rect class="BoundingBox" stroke="none" fill="none" x="18290" y="2124" width="154" height="152"/>
         <path fill="rgb(63,61,86)" stroke="none" d="M 18368,2275 C 18409,2275 18443,2241 18443,2199 18443,2158 18409,2124 18368,2124 18326,2124 18291,2158 18291,2199 18291,2241 18326,2275 18368,2275 Z"/>
        </g>
       </g>
       <g class="com.sun.star.drawing.ClosedBezierShape">
        <g id="id42">
         <rect class="BoundingBox" stroke="none" fill="none" x="17769" y="1209" width="154" height="152"/>
         <path fill="rgb(63,61,86)" stroke="none" d="M 17845,1360 C 17888,1360 17922,1325 17922,1284 17922,1242 17888,1209 17845,1209 17804,1209 17770,1242 17770,1284 17770,1325 17804,1360 17845,1360 Z"/>
        </g>
       </g>
       <g class="com.sun.star.drawing.ClosedBezierShape">
        <g id="id43">
         <rect class="BoundingBox" stroke="none" fill="none" x="17555" y="221" width="152" height="153"/>
         <path fill="rgb(63,61,86)" stroke="none" d="M 17631,373 C 17672,373 17706,339 17706,297 17706,255 17672,221 17631,221 17589,221 17555,255 17555,297 17555,339 17589,373 17631,373 Z"/>
        </g>
       </g>
      </g>
     </g>
    </g>
   </g>
  </g>
 </g>
</svg>