<?xml version="1.0" encoding="UTF-8"?>
<!DOCTYPE svg PUBLIC "-//W3C//DTD SVG 1.1//EN" "http://www.w3.org/Graphics/SVG/1.1/DTD/svg11.dtd">
<svg version="1.2" width="176mm" height="123.8mm" viewBox="0 0 17600 12380" preserveAspectRatio="xMidYMid" fill-rule="evenodd" stroke-width="28.222" stroke-linejoin="round" xmlns="http://www.w3.org/2000/svg" xmlns:ooo="http://xml.openoffice.org/svg/export" xmlns:xlink="http://www.w3.org/1999/xlink" xmlns:presentation="http://sun.com/xmlns/staroffice/presentation" xmlns:smil="http://www.w3.org/2001/SMIL20/" xmlns:anim="urn:oasis:names:tc:opendocument:xmlns:animation:1.0" xml:space="preserve">
 <defs class="ClipPathGroup">
  <clipPath id="presentation_clip_path" clipPathUnits="userSpaceOnUse">
   <rect x="0" y="0" width="17600" height="12380"/>
  </clipPath>
  <clipPath id="presentation_clip_path_shrink" clipPathUnits="userSpaceOnUse">
   <rect x="17" y="12" width="17565" height="12356"/>
  </clipPath>
 </defs>
 <defs class="TextShapeIndex">
  <g ooo:slide="id1" ooo:id-list="id3 id4 id5 id6 id7 id8 id9 id10 id11 id12 id13 id14 id15 id16 id17 id18 id19 id20 id21 id22 id23 id24 id25 id26 id27 id28 id29 id30 id31 id32"/>
 </defs>
 <defs class="EmbeddedBulletChars">
  <g id="bullet-char-template-57356" transform="scale(0.00048828125,-0.00048828125)">
   <path d="M 580,1141 L 1163,571 580,0 -4,571 580,1141 Z"/>
  </g>
  <g id="bullet-char-template-57354" transform="scale(0.00048828125,-0.00048828125)">
   <path d="M 8,1128 L 1137,1128 1137,0 8,0 8,1128 Z"/>
  </g>
  <g id="bullet-char-template-10146" transform="scale(0.00048828125,-0.00048828125)">
   <path d="M 174,0 L 602,739 174,1481 1456,739 174,0 Z M 1358,739 L 309,1346 659,739 1358,739 Z"/>
  </g>
  <g id="bullet-char-template-10132" transform="scale(0.00048828125,-0.00048828125)">
   <path d="M 2015,739 L 1276,0 717,0 1260,543 174,543 174,936 1260,936 717,1481 1274,1481 2015,739 Z"/>
  </g>
  <g id="bullet-char-template-10007" transform="scale(0.00048828125,-0.00048828125)">
   <path d="M 0,-2 C -7,14 -16,27 -25,37 L 356,567 C 262,823 215,952 215,954 215,979 228,992 255,992 264,992 276,990 289,987 310,991 331,999 354,1012 L 381,999 492,748 772,1049 836,1024 860,1049 C 881,1039 901,1025 922,1006 886,937 835,863 770,784 769,783 710,716 594,584 L 774,223 C 774,196 753,168 711,139 L 727,119 C 717,90 699,76 672,76 641,76 570,178 457,381 L 164,-76 C 142,-110 111,-127 72,-127 30,-127 9,-110 8,-76 1,-67 -2,-52 -2,-32 -2,-23 -1,-13 0,-2 Z"/>
  </g>
  <g id="bullet-char-template-10004" transform="scale(0.00048828125,-0.00048828125)">
   <path d="M 285,-33 C 182,-33 111,30 74,156 52,228 41,333 41,471 41,549 55,616 82,672 116,743 169,778 240,778 293,778 328,747 346,684 L 369,508 C 377,444 397,411 428,410 L 1163,1116 C 1174,1127 1196,1133 1229,1133 1271,1133 1292,1118 1292,1087 L 1292,965 C 1292,929 1282,901 1262,881 L 442,47 C 390,-6 338,-33 285,-33 Z"/>
  </g>
  <g id="bullet-char-template-9679" transform="scale(0.00048828125,-0.00048828125)">
   <path d="M 813,0 C 632,0 489,54 383,161 276,268 223,411 223,592 223,773 276,916 383,1023 489,1130 632,1184 813,1184 992,1184 1136,1130 1245,1023 1353,916 1407,772 1407,592 1407,412 1353,268 1245,161 1136,54 992,0 813,0 Z"/>
  </g>
  <g id="bullet-char-template-8226" transform="scale(0.00048828125,-0.00048828125)">
   <path d="M 346,457 C 273,457 209,483 155,535 101,586 74,649 74,723 74,796 101,859 155,911 209,963 273,989 346,989 419,989 480,963 531,910 582,859 608,796 608,723 608,648 583,586 532,535 482,483 420,457 346,457 Z"/>
  </g>
  <g id="bullet-char-template-8211" transform="scale(0.00048828125,-0.00048828125)">
   <path d="M -4,459 L 1135,459 1135,606 -4,606 -4,459 Z"/>
  </g>
  <g id="bullet-char-template-61548" transform="scale(0.00048828125,-0.00048828125)">
   <path d="M 173,740 C 173,903 231,1043 346,1159 462,1274 601,1332 765,1332 928,1332 1067,1274 1183,1159 1299,1043 1357,903 1357,740 1357,577 1299,437 1183,322 1067,206 928,148 765,148 601,148 462,206 346,322 231,437 173,577 173,740 Z"/>
  </g>
 </defs>
 <g>
  <g id="id2" class="Master_Slide">
   <g id="bg-id2" class="Background"/>
   <g id="bo-id2" class="BackgroundObjects"/>
  </g>
 </g>
 <g class="SlideGroup">
  <g>
   <g id="container-id1">
    <g id="id1" class="Slide" clip-path="url(#presentation_clip_path)">
     <g class="Page">
      <g class="Group">
       <g class="com.sun.star.drawing.ClosedBezierShape">
        <g id="id3">
         <rect class="BoundingBox" stroke="none" fill="none" x="4705" y="5828" width="2221" height="2164"/>
         <path fill="rgb(255,184,184)" stroke="none" d="M 6921,7769 C 6926,7733 6924,7695 6913,7659 6902,7624 6884,7591 6859,7563 6834,7535 6804,7513 6769,7498 6735,7484 6699,7477 6661,7478 L 5028,5829 4706,6279 6412,7759 C 6418,7821 6447,7879 6493,7921 6539,7964 6599,7988 6662,7990 6725,7991 6785,7969 6833,7929 6881,7888 6912,7831 6921,7769 Z"/>
        </g>
       </g>
       <g class="com.sun.star.drawing.ClosedBezierShape">
        <g id="id4">
         <rect class="BoundingBox" stroke="none" fill="none" x="4317" y="5401" width="1864" height="1865"/>
         <path fill="rgb(255,193,7)" stroke="none" d="M 6148,6818 L 5732,7234 C 5712,7254 5685,7265 5657,7265 5629,7265 5601,7254 5581,7235 L 4442,6115 C 4402,6077 4371,6031 4350,5980 4328,5929 4317,5874 4317,5819 4317,5764 4327,5710 4348,5659 4370,5608 4401,5561 4440,5522 4479,5483 4525,5453 4576,5432 4627,5411 4682,5400 4737,5401 4793,5401 4847,5412 4899,5434 4950,5456 4996,5487 5034,5526 L 6149,6667 C 6169,6687 6180,6714 6180,6743 6179,6772 6168,6798 6148,6818 Z"/>
        </g>
       </g>
       <g class="com.sun.star.drawing.ClosedBezierShape">
        <g id="id5">
         <rect class="BoundingBox" stroke="none" fill="none" x="4103" y="3612" width="1168" height="1167"/>
         <path fill="rgb(255,184,184)" stroke="none" d="M 4687,4777 C 5009,4777 5270,4517 5270,4196 5270,3875 5009,3613 4687,3613 4365,3613 4103,3875 4103,4196 4103,4517 4365,4777 4687,4777 Z"/>
        </g>
       </g>
       <g class="com.sun.star.drawing.PolyPolygonShape">
        <g id="id6">
         <rect class="BoundingBox" stroke="none" fill="none" x="2717" y="10600" width="1187" height="822"/>
         <path fill="rgb(255,184,184)" stroke="none" d="M 2717,11168 L 2864,11420 3902,10969 3685,10600 2717,11168 Z"/>
        </g>
       </g>
       <g class="com.sun.star.drawing.ClosedBezierShape">
        <g id="id7">
         <rect class="BoundingBox" stroke="none" fill="none" x="2436" y="11056" width="669" height="1001"/>
         <path fill="rgb(47,46,65)" stroke="none" d="M 2762,11056 L 3052,11551 C 3077,11592 3093,11638 3099,11685 3106,11732 3103,11781 3091,11827 3079,11873 3058,11917 3029,11955 3000,11993 2964,12026 2923,12050 L 2913,12056 2436,11248 2762,11056 Z"/>
        </g>
       </g>
       <g class="com.sun.star.drawing.PolyPolygonShape">
        <g id="id8">
         <rect class="BoundingBox" stroke="none" fill="none" x="4426" y="10950" width="432" height="1123"/>
         <path fill="rgb(255,184,184)" stroke="none" d="M 4426,12072 L 4718,12072 4857,10950 4426,10950 4426,12072 Z"/>
        </g>
       </g>
       <g class="com.sun.star.drawing.ClosedBezierShape">
        <g id="id9">
         <rect class="BoundingBox" stroke="none" fill="none" x="4352" y="11975" width="940" height="379"/>
         <path fill="rgb(47,46,65)" stroke="none" d="M 4352,11976 L 4926,11976 C 4974,11976 5022,11985 5066,12003 5110,12022 5150,12049 5184,12082 5218,12116 5245,12158 5264,12202 5282,12246 5291,12293 5291,12341 L 5291,12353 4352,12353 4352,11976 Z"/>
        </g>
       </g>
       <g class="com.sun.star.drawing.ClosedBezierShape">
        <g id="id10">
         <rect class="BoundingBox" stroke="none" fill="none" x="2870" y="8005" width="2210" height="3389"/>
         <path fill="rgb(47,46,65)" stroke="none" d="M 3258,11392 C 3241,11393 3225,11389 3210,11381 3195,11373 3182,11363 3172,11349 L 2891,10968 C 2883,10957 2877,10944 2873,10930 2870,10916 2870,10901 2872,10887 2875,10873 2880,10859 2888,10847 2896,10835 2906,10824 2918,10816 L 4166,9985 3413,8005 5024,8139 5078,9839 C 5084,9994 5046,10146 4971,10282 4895,10417 4785,10529 4650,10607 L 3311,11378 C 3295,11388 3277,11392 3258,11392 Z"/>
        </g>
       </g>
       <g class="com.sun.star.drawing.ClosedBezierShape">
        <g id="id11">
         <rect class="BoundingBox" stroke="none" fill="none" x="4270" y="10045" width="733" height="1800"/>
         <path fill="rgb(47,46,65)" stroke="none" d="M 4435,11844 C 4408,11844 4381,11833 4361,11814 4341,11795 4330,11769 4329,11741 L 4270,10084 5002,10045 4944,11715 C 4943,11741 4932,11766 4914,11785 4895,11804 4870,11816 4844,11817 L 4443,11844 C 4440,11844 4438,11844 4435,11844 Z"/>
        </g>
       </g>
       <g class="com.sun.star.drawing.ClosedBezierShape">
        <g id="id12">
         <rect class="BoundingBox" stroke="none" fill="none" x="3284" y="4929" width="1999" height="3541"/>
         <path fill="rgb(255,193,7)" stroke="none" d="M 5210,8469 C 5024,8469 4374,8260 4148,8185 4115,8212 3929,8351 3713,8325 3579,8310 3462,8234 3364,8101 3146,7807 3415,6545 3678,5539 3730,5336 3860,5161 4040,5050 4219,4940 4434,4903 4639,4948 4788,4981 4925,5055 5035,5162 5144,5269 5222,5403 5260,5551 5309,5752 5266,5989 5234,6162 5220,6244 5208,6308 5212,6339 5227,6461 5313,8374 5259,8456 5253,8465 5235,8469 5210,8469 Z"/>
        </g>
       </g>
       <g class="com.sun.star.drawing.ClosedBezierShape">
        <g id="id13">
         <rect class="BoundingBox" stroke="none" fill="none" x="4016" y="5761" width="618" height="2763"/>
         <path fill="rgb(255,184,184)" stroke="none" d="M 4529,8471 C 4559,8449 4584,8420 4602,8388 4620,8355 4630,8319 4632,8281 4635,8244 4629,8207 4615,8173 4601,8138 4579,8107 4551,8081 L 4563,5762 4016,5853 4177,8104 C 4137,8153 4116,8214 4119,8277 4121,8339 4146,8399 4190,8444 4233,8489 4292,8517 4354,8522 4417,8527 4479,8509 4529,8471 Z"/>
        </g>
       </g>
       <g class="com.sun.star.drawing.ClosedBezierShape">
        <g id="id14">
         <rect class="BoundingBox" stroke="none" fill="none" x="3945" y="5130" width="838" height="2124"/>
         <path fill="rgb(255,193,7)" stroke="none" d="M 4657,7252 L 4067,7252 C 4038,7251 4012,7240 3992,7221 3972,7201 3960,7174 3960,7147 L 3945,5551 C 3945,5496 3955,5441 3976,5390 3997,5339 4028,5292 4067,5253 4105,5214 4152,5183 4203,5162 4254,5141 4308,5130 4364,5130 4419,5130 4474,5141 4525,5162 4576,5184 4623,5215 4661,5254 4700,5293 4731,5340 4751,5391 4772,5442 4782,5497 4782,5552 L 4763,7147 C 4763,7174 4752,7201 4732,7221 4712,7240 4685,7251 4657,7252 Z"/>
        </g>
       </g>
       <g class="com.sun.star.drawing.ClosedBezierShape">
        <g id="id15">
         <rect class="BoundingBox" stroke="none" fill="none" x="3964" y="3399" width="1360" height="1378"/>
         <path fill="rgb(47,46,65)" stroke="none" d="M 4539,4775 C 4272,4775 4019,4565 3973,4301 3956,4199 3964,4094 3995,3994 4028,3880 4086,3775 4163,3686 4242,3596 4338,3524 4446,3475 4553,3426 4671,3400 4789,3400 4908,3400 5025,3425 5133,3473 5204,3506 5275,3552 5307,3623 5340,3694 5320,3794 5248,3826 5201,3847 5143,3836 5101,3866 5042,3910 5057,4001 5084,4070 5110,4138 5140,4221 5096,4280 5054,4333 4971,4331 4906,4311 4840,4290 4776,4257 4708,4264 4608,4274 4537,4372 4524,4472 4510,4571 4541,4670 4572,4765 L 4539,4775 Z"/>
        </g>
       </g>
       <g class="com.sun.star.drawing.ClosedBezierShape">
        <g id="id16">
         <rect class="BoundingBox" stroke="none" fill="none" x="11829" y="0" width="5773" height="8253"/>
         <path fill="rgb(255,193,7)" stroke="none" d="M 11829,5369 C 11829,3777 13121,0 14714,0 16308,0 17600,3777 17600,5369 17600,6134 17296,6867 16755,7406 16214,7947 15480,8251 14714,8251 13949,8251 13215,7947 12674,7406 12133,6867 11829,6134 11829,5369 Z"/>
        </g>
       </g>
       <g class="com.sun.star.drawing.ClosedBezierShape">
        <g id="id17">
         <rect class="BoundingBox" stroke="none" fill="none" x="14690" y="2397" width="50" height="9984"/>
         <path fill="rgb(63,61,86)" stroke="none" d="M 14714,12380 C 14708,12380 14702,12377 14698,12373 14693,12369 14691,12363 14691,12356 L 14691,2420 C 14691,2414 14693,2408 14698,2403 14702,2399 14708,2397 14714,2397 14721,2397 14728,2399 14732,2403 14737,2408 14739,2414 14739,2420 L 14739,12356 C 14739,12363 14737,12369 14732,12373 14728,12377 14721,12380 14714,12380 Z"/>
        </g>
       </g>
       <g class="com.sun.star.drawing.ClosedBezierShape">
        <g id="id18">
         <rect class="BoundingBox" stroke="none" fill="none" x="13548" y="3150" width="1193" height="1191"/>
         <path fill="rgb(63,61,86)" stroke="none" d="M 14715,4339 C 14712,4339 14709,4338 14706,4337 14703,4336 14701,4334 14699,4332 L 13555,3191 C 13551,3187 13548,3181 13549,3174 13549,3168 13551,3162 13555,3158 13560,3153 13566,3151 13572,3151 13578,3151 13584,3153 13589,3157 L 14732,4298 C 14735,4302 14738,4306 14739,4311 14740,4315 14739,4320 14737,4324 14735,4329 14732,4332 14729,4335 14725,4337 14720,4339 14715,4339 Z"/>
        </g>
       </g>
       <g class="com.sun.star.drawing.ClosedBezierShape">
        <g id="id19">
         <rect class="BoundingBox" stroke="none" fill="none" x="14690" y="4355" width="1963" height="1960"/>
         <path fill="rgb(63,61,86)" stroke="none" d="M 14714,6314 C 14710,6314 14705,6313 14701,6310 14697,6307 14694,6304 14692,6299 14691,6295 14690,6290 14691,6286 14692,6281 14694,6277 14698,6274 L 16611,4362 C 16616,4357 16622,4355 16628,4355 16634,4355 16640,4358 16645,4362 16649,4366 16652,4372 16652,4379 16652,4385 16649,4391 16645,4395 L 14731,6307 C 14729,6309 14726,6311 14723,6312 14721,6313 14717,6314 14714,6314 Z"/>
        </g>
       </g>
       <g class="com.sun.star.drawing.ClosedBezierShape">
        <g id="id20">
         <rect class="BoundingBox" stroke="none" fill="none" x="6684" y="7669" width="3055" height="3534"/>
         <path fill="rgb(204,204,204)" stroke="none" d="M 6730,7755 C 7109,7669 7539,7965 7552,8362 7556,8474 7523,8591 7437,8668 7365,8731 7259,8763 7167,8732 6990,8673 6981,8426 7076,8295 7204,8117 7460,8086 7661,8108 7908,8133 8142,8241 8339,8390 8732,8687 8983,9141 9186,9580 9394,10030 9545,10504 9636,10992 9647,11053 9658,11114 9667,11176 9670,11185 9676,11192 9684,11197 9693,11201 9702,11203 9711,11200 9720,11197 9728,11191 9732,11183 9737,11175 9738,11165 9736,11156 9653,10624 9499,10105 9279,9615 9067,9139 8799,8645 8372,8327 8161,8169 7910,8059 7644,8035 7421,8015 7155,8062 7016,8257 6906,8410 6917,8666 7087,8772 7180,8831 7299,8824 7397,8778 7448,8753 7494,8717 7530,8672 7566,8627 7591,8575 7605,8519 7666,8299 7574,8060 7417,7903 7269,7754 7069,7670 6860,7669 6809,7669 6759,7675 6710,7687 6665,7697 6685,7765 6730,7755 Z"/>
        </g>
       </g>
       <g class="com.sun.star.drawing.ClosedBezierShape">
        <g id="id21">
         <rect class="BoundingBox" stroke="none" fill="none" x="8320" y="11549" width="551" height="658"/>
         <path fill="rgb(255,193,7)" stroke="none" d="M 8555,12122 L 8320,11720 8610,11550 8846,11952 C 8869,11990 8875,12037 8864,12080 8852,12123 8824,12160 8786,12182 8746,12205 8701,12211 8657,12200 8614,12189 8577,12161 8555,12122 Z"/>
        </g>
       </g>
       <g class="com.sun.star.drawing.ClosedBezierShape">
        <g id="id22">
         <rect class="BoundingBox" stroke="none" fill="none" x="7570" y="10874" width="417" height="416"/>
         <path fill="rgb(255,193,7)" stroke="none" d="M 7778,11288 C 7892,11288 7985,11196 7985,11081 7985,10967 7892,10874 7778,10874 7664,10874 7570,10967 7570,11081 7570,11196 7664,11288 7778,11288 Z"/>
        </g>
       </g>
       <g class="com.sun.star.drawing.ClosedBezierShape">
        <g id="id23">
         <rect class="BoundingBox" stroke="none" fill="none" x="9229" y="11549" width="552" height="658"/>
         <path fill="rgb(255,193,7)" stroke="none" d="M 9466,12122 L 9230,11720 9521,11550 9756,11952 C 9779,11990 9785,12037 9774,12080 9763,12123 9735,12160 9696,12182 9658,12205 9612,12211 9569,12200 9526,12189 9489,12161 9466,12122 Z"/>
        </g>
       </g>
       <g class="com.sun.star.drawing.ClosedBezierShape">
        <g id="id24">
         <rect class="BoundingBox" stroke="none" fill="none" x="7816" y="11058" width="2020" height="880"/>
         <path fill="rgb(63,61,86)" stroke="none" d="M 7816,11497 C 7816,11381 7863,11269 7945,11187 8028,11104 8139,11058 8256,11058 L 9649,11058 C 9698,11058 9745,11078 9780,11112 9815,11147 9834,11194 9835,11243 L 9835,11402 C 9834,11543 9778,11680 9678,11780 9576,11881 9440,11937 9298,11937 L 8256,11937 C 8139,11937 8028,11891 7945,11808 7863,11726 7816,11613 7816,11497 Z"/>
        </g>
       </g>
       <g class="com.sun.star.drawing.ClosedBezierShape">
        <g id="id25">
         <rect class="BoundingBox" stroke="none" fill="none" x="8137" y="11707" width="339" height="636"/>
         <path fill="rgb(63,61,86)" stroke="none" d="M 8137,12174 L 8137,11708 8474,11708 8474,12174 C 8474,12219 8457,12261 8424,12293 8393,12324 8350,12342 8305,12342 8261,12342 8218,12324 8186,12293 8155,12261 8137,12219 8137,12174 Z"/>
        </g>
       </g>
       <g class="com.sun.star.drawing.ClosedBezierShape">
        <g id="id26">
         <rect class="BoundingBox" stroke="none" fill="none" x="9112" y="11707" width="339" height="636"/>
         <path fill="rgb(63,61,86)" stroke="none" d="M 9113,12174 L 9113,11708 9450,11708 9450,12174 C 9450,12196 9446,12218 9437,12238 9428,12259 9415,12277 9400,12293 9384,12309 9366,12321 9345,12329 9325,12338 9303,12342 9281,12342 9259,12342 9237,12338 9217,12329 9196,12321 9178,12309 9162,12293 9146,12277 9134,12259 9126,12238 9117,12218 9113,12196 9113,12174 Z"/>
        </g>
       </g>
       <g class="com.sun.star.drawing.ClosedBezierShape">
        <g id="id27">
         <rect class="BoundingBox" stroke="none" fill="none" x="10140" y="10256" width="710" height="761"/>
         <path fill="rgb(255,193,7)" stroke="none" d="M 10482,10333 C 10516,10291 10566,10264 10621,10258 10675,10252 10730,10268 10772,10302 10815,10336 10842,10386 10848,10441 10854,10495 10839,10549 10804,10593 L 10464,11015 10141,10756 10482,10333 Z"/>
        </g>
       </g>
       <g class="com.sun.star.drawing.ClosedBezierShape">
        <g id="id28">
         <rect class="BoundingBox" stroke="none" fill="none" x="9628" y="10679" width="1131" height="1160"/>
         <path fill="rgb(63,61,86)" stroke="none" d="M 9662,11168 L 9934,10829 C 10000,10747 10097,10693 10202,10682 10307,10670 10413,10702 10495,10768 L 10580,10836 C 10678,10915 10741,11029 10755,11154 10769,11280 10732,11404 10653,11502 L 10429,11781 C 10404,11812 10368,11832 10329,11836 10289,11840 10250,11829 10219,11804 L 9684,11377 C 9654,11352 9634,11316 9630,11277 9625,11238 9637,11198 9662,11168 Z"/>
        </g>
       </g>
       <g class="com.sun.star.drawing.ClosedBezierShape">
        <g id="id29">
         <rect class="BoundingBox" stroke="none" fill="none" x="10140" y="10230" width="637" height="707"/>
         <path fill="rgb(63,61,86)" stroke="none" d="M 10521,10283 C 10533,10269 10547,10256 10564,10247 10580,10238 10598,10233 10618,10231 10636,10229 10655,10230 10673,10236 10691,10241 10708,10250 10722,10261 10737,10273 10749,10287 10758,10304 10767,10320 10772,10338 10775,10357 10777,10375 10775,10394 10770,10412 10764,10430 10756,10446 10744,10461 L 10362,10935 10141,10757 10521,10283 Z"/>
        </g>
       </g>
       <g class="com.sun.star.drawing.ClosedBezierShape">
        <g id="id30">
         <rect class="BoundingBox" stroke="none" fill="none" x="9716" y="11074" width="923" height="840"/>
         <path fill="rgb(63,61,86)" stroke="none" d="M 9976,11074 L 10562,11543 C 10604,11579 10632,11629 10637,11683 10643,11737 10627,11792 10593,11835 10559,11877 10509,11905 10454,11911 10399,11917 10344,11901 10302,11867 L 9717,11396 9976,11074 Z"/>
        </g>
       </g>
       <g class="com.sun.star.drawing.ClosedBezierShape">
        <g id="id31">
         <rect class="BoundingBox" stroke="none" fill="none" x="10512" y="11743" width="136" height="153"/>
         <path fill="rgb(255,193,7)" stroke="none" d="M 10618,11849 C 10648,11812 10656,11767 10634,11750 10614,11733 10572,11750 10542,11788 10511,11826 10503,11870 10525,11887 10546,11904 10587,11887 10618,11849 Z"/>
        </g>
       </g>
       <g class="com.sun.star.drawing.ClosedBezierShape">
        <g id="id32">
         <rect class="BoundingBox" stroke="none" fill="none" x="0" y="12326" width="16443" height="51"/>
         <path fill="rgb(204,204,204)" stroke="none" d="M 16417,12376 L 23,12376 C 17,12376 11,12373 7,12369 2,12364 0,12358 0,12352 0,12346 2,12339 7,12334 11,12330 17,12327 23,12327 L 16417,12327 C 16424,12327 16430,12330 16434,12334 16439,12339 16441,12346 16441,12352 16441,12358 16439,12364 16434,12369 16430,12373 16424,12376 16417,12376 Z"/>
        </g>
       </g>
      </g>
     </g>
    </g>
   </g>
  </g>
 </g>
</svg>